<?xml version="1.0" encoding="UTF-8"?>
<!DOCTYPE svg PUBLIC "-//W3C//DTD SVG 1.1//EN" "http://www.w3.org/Graphics/SVG/1.1/DTD/svg11.dtd">
<svg xmlns="http://www.w3.org/2000/svg" version="1.1" width="500px" height="500px" style="shape-rendering:geometricPrecision; text-rendering:geometricPrecision; image-rendering:optimizeQuality; fill-rule:evenodd; clip-rule:evenodd" xmlns:xlink="http://www.w3.org/1999/xlink">
<g><path style="opacity:1" fill="#4578a1" d="M -0.5,-0.5 C 166.167,-0.5 332.833,-0.5 499.5,-0.5C 499.5,166.167 499.5,332.833 499.5,499.5C 332.833,499.5 166.167,499.5 -0.5,499.5C -0.5,332.833 -0.5,166.167 -0.5,-0.5 Z"/></g>
<g><path style="opacity:1" fill="#3e2914" d="M 285.5,21.5 C 221.833,21.5 158.167,21.5 94.5,21.5C 87.8377,22.0027 85.3377,19.0027 87,12.5C 87.9025,11.2986 89.0692,10.4652 90.5,10C 155.833,9.33333 221.167,9.33333 286.5,10C 289.991,11.8208 291.157,14.6542 290,18.5C 288.871,20.1412 287.371,21.1412 285.5,21.5 Z"/></g>
<g><path style="opacity:1" fill="#44a08d" d="M 94.5,21.5 C 158.167,21.5 221.833,21.5 285.5,21.5C 288.139,23.309 290.306,25.6424 292,28.5C 292.667,36.5 292.667,44.5 292,52.5C 290.618,57.9415 287.118,60.6082 281.5,60.5C 281.666,55.4889 281.499,50.4889 281,45.5C 275.561,39.9091 270.561,40.2424 266,46.5C 265.667,58.8333 265.333,71.1667 265,83.5C 262.947,87.2916 259.781,88.4582 255.5,87C 254.667,86.1667 253.833,85.3333 253,84.5C 252.667,79.5 252.333,74.5 252,69.5C 248.53,63.6797 243.363,60.8464 236.5,61C 235.333,59.8333 234.167,58.6667 233,57.5C 231.804,51.5813 231.138,45.5813 231,39.5C 228.081,33.9752 223.581,32.1419 217.5,34C 215.083,35.6626 213.25,37.8293 212,40.5C 211.667,58.1667 211.333,75.8333 211,93.5C 208.367,98.7315 204.201,100.565 198.5,99C 196.622,97.4571 195.122,95.6238 194,93.5C 193.667,75.8333 193.333,58.1667 193,40.5C 189.488,33.8069 183.988,31.6402 176.5,34C 175,35.5 173.5,37 172,38.5C 172.167,49 167,54.1667 156.5,54C 155,55.5 153.5,57 152,58.5C 151.667,64.5 151.333,70.5 151,76.5C 145.21,89.4301 136.043,92.5967 123.5,86C 121.383,84.2691 119.883,82.1024 119,79.5C 117.74,69.2393 117.073,58.906 117,48.5C 114.166,41.3335 108.999,38.8335 101.5,41C 98.2716,42.5629 96.1049,45.0629 95,48.5C 94.5001,60.4954 94.3335,72.4954 94.5,84.5C 89.5264,84.701 86.3597,82.3677 85,77.5C 84.3333,61.5 84.3333,45.5 85,29.5C 87.1608,25.4952 90.3275,22.8286 94.5,21.5 Z"/></g>
<g><path style="opacity:1" fill="#aec7df" d="M 281.5,60.5 C 281.5,89.1667 281.5,117.833 281.5,146.5C 265.167,146.5 248.833,146.5 232.5,146.5C 232.813,150.042 232.479,153.375 231.5,156.5C 231.128,127.459 216.461,111.459 187.5,108.5C 166.003,110.498 152.17,121.832 146,142.5C 145.501,147.823 145.334,153.156 145.5,158.5C 145.167,158.5 144.833,158.5 144.5,158.5C 144.5,154.5 144.5,150.5 144.5,146.5C 127.833,146.5 111.167,146.5 94.5,146.5C 94.5,125.833 94.5,105.167 94.5,84.5C 94.3335,72.4954 94.5001,60.4954 95,48.5C 96.1049,45.0629 98.2716,42.5629 101.5,41C 108.999,38.8335 114.166,41.3335 117,48.5C 117.073,58.906 117.74,69.2393 119,79.5C 119.883,82.1024 121.383,84.2691 123.5,86C 136.043,92.5967 145.21,89.4301 151,76.5C 151.333,70.5 151.667,64.5 152,58.5C 153.5,57 155,55.5 156.5,54C 167,54.1667 172.167,49 172,38.5C 173.5,37 175,35.5 176.5,34C 183.988,31.6402 189.488,33.8069 193,40.5C 193.333,58.1667 193.667,75.8333 194,93.5C 195.122,95.6238 196.622,97.4571 198.5,99C 204.201,100.565 208.367,98.7315 211,93.5C 211.333,75.8333 211.667,58.1667 212,40.5C 213.25,37.8293 215.083,35.6626 217.5,34C 223.581,32.1419 228.081,33.9752 231,39.5C 231.138,45.5813 231.804,51.5813 233,57.5C 234.167,58.6667 235.333,59.8333 236.5,61C 243.363,60.8464 248.53,63.6797 252,69.5C 252.333,74.5 252.667,79.5 253,84.5C 253.833,85.3333 254.667,86.1667 255.5,87C 259.781,88.4582 262.947,87.2916 265,83.5C 265.333,71.1667 265.667,58.8333 266,46.5C 270.561,40.2424 275.561,39.9091 281,45.5C 281.499,50.4889 281.666,55.4889 281.5,60.5 Z"/></g>
<g><path style="opacity:1" fill="#629aeb" d="M 231.5,156.5 C 231.5,157.167 231.5,157.833 231.5,158.5C 226.508,181.989 212.008,194.656 188,196.5C 166.67,194.838 152.67,183.838 146,163.5C 145.506,161.866 145.34,160.199 145.5,158.5C 145.334,153.156 145.501,147.823 146,142.5C 152.17,121.832 166.003,110.498 187.5,108.5C 216.461,111.459 231.128,127.459 231.5,156.5 Z"/></g>
<g><path style="opacity:1" fill="#44362d" d="M 180.5,115.5 C 209.852,114.356 224.685,128.356 225,157.5C 222.169,173.999 212.669,184.499 196.5,189C 173.395,191.551 158.562,181.718 152,159.5C 150.006,137.337 159.506,122.67 180.5,115.5 Z"/></g>
<g><path style="opacity:1" fill="#6097e8" d="M 179.5,117.5 C 200.912,114.783 215.412,123.45 223,143.5C 226.123,163.427 218.623,177.593 200.5,186C 179.136,191.565 163.969,184.399 155,164.5C 149.466,141.568 157.633,125.901 179.5,117.5 Z"/></g>
<g><path style="opacity:1" fill="#3e2a16" d="M 182.5,123.5 C 190.479,122.627 197.812,124.294 204.5,128.5C 200.902,134.04 197.069,139.374 193,144.5C 189.471,143.398 185.971,143.232 182.5,144C 179.042,138.918 175.709,133.752 172.5,128.5C 175.657,126.255 178.991,124.588 182.5,123.5 Z"/></g>
<g><path style="opacity:1" fill="#3e2914" d="M 94.5,146.5 C 111.167,146.5 127.833,146.5 144.5,146.5C 144.5,150.5 144.5,154.5 144.5,158.5C 128.167,158.5 111.833,158.5 95.5,158.5C 95.1667,158.5 94.8333,158.5 94.5,158.5C 89.8039,159.131 87.1372,157.131 86.5,152.5C 87.1372,147.869 89.8039,145.869 94.5,146.5 Z"/></g>
<g><path style="opacity:1" fill="#3e2914" d="M 281.5,146.5 C 290.818,146.655 292.818,150.488 287.5,158C 285.527,158.495 283.527,158.662 281.5,158.5C 264.833,158.5 248.167,158.5 231.5,158.5C 231.5,157.833 231.5,157.167 231.5,156.5C 232.479,153.375 232.813,150.042 232.5,146.5C 248.833,146.5 265.167,146.5 281.5,146.5 Z"/></g>
<g><path style="opacity:1" fill="#3e2a17" d="M 185.5,147.5 C 193.486,146.998 195.486,150.165 191.5,157C 183.424,157.805 181.424,154.638 185.5,147.5 Z"/></g>
<g><path style="opacity:1" fill="#3e2a17" d="M 159.5,150.5 C 166.167,150.833 172.833,151.167 179.5,151.5C 179.19,155.54 180.524,158.873 183.5,161.5C 181.196,167.44 178.363,173.107 175,178.5C 164.379,172.263 159.212,162.929 159.5,150.5 Z"/></g>
<g><path style="opacity:1" fill="#3e2a17" d="M 205.5,150.5 C 209.5,150.5 213.5,150.5 217.5,150.5C 217.783,162.941 212.616,172.274 202,178.5C 198.706,172.747 195.54,166.913 192.5,161C 195.892,158.715 197.559,155.548 197.5,151.5C 200.385,151.806 203.052,151.473 205.5,150.5 Z"/></g>
<g><path style="opacity:1" fill="#afc7e0" d="M 95.5,158.5 C 111.833,158.5 128.167,158.5 144.5,158.5C 144.833,158.5 145.167,158.5 145.5,158.5C 145.34,160.199 145.506,161.866 146,163.5C 152.67,183.838 166.67,194.838 188,196.5C 212.008,194.656 226.508,181.989 231.5,158.5C 248.167,158.5 264.833,158.5 281.5,158.5C 281.5,195.167 281.5,231.833 281.5,268.5C 281.5,273.167 281.5,277.833 281.5,282.5C 219.5,282.5 157.5,282.5 95.5,282.5C 95.5,241.167 95.5,199.833 95.5,158.5 Z"/></g>
<g><path style="opacity:1" fill="#163f40" d="M 303.5,191.5 C 302.448,191.351 301.448,191.517 300.5,192C 336.42,213.545 372.587,234.712 409,255.5C 409.667,256.833 410.333,258.167 411,259.5C 411.168,287.003 411.668,314.336 412.5,341.5C 411.791,342.404 410.791,342.737 409.5,342.5C 409.663,344.857 409.497,347.19 409,349.5C 408.329,350.252 407.496,350.586 406.5,350.5C 407.141,349.518 407.807,348.518 408.5,347.5C 408.043,346.702 407.376,346.369 406.5,346.5C 406.953,345.542 407.619,344.708 408.5,344C 400.296,338.967 391.963,334.134 383.5,329.5C 381.568,330.52 379.568,330.687 377.5,330C 358.415,318.707 339.249,307.54 320,296.5C 319.508,295.451 319.674,294.451 320.5,293.5C 313.5,289.333 306.5,285.167 299.5,281C 297.527,280.505 295.527,280.338 293.5,280.5C 294.718,279.839 296.051,279.172 297.5,278.5C 296.902,277.205 296.402,275.872 296,274.5C 295.333,247.5 295.333,220.5 296,193.5C 297.255,192.789 298.421,191.956 299.5,191C 301.066,190.235 302.399,190.402 303.5,191.5 Z"/></g>
<g><path style="opacity:1" fill="#409a89" d="M 303.5,191.5 C 339.794,212.771 376.127,234.104 412.5,255.5C 413.824,284.233 413.824,312.899 412.5,341.5C 411.668,314.336 411.168,287.003 411,259.5C 410.333,258.167 409.667,256.833 409,255.5C 372.587,234.712 336.42,213.545 300.5,192C 301.448,191.517 302.448,191.351 303.5,191.5 Z"/></g>
<g><path style="opacity:1" fill="#5f99eb" d="M 406.5,260.5 C 406.831,285.672 406.498,310.672 405.5,335.5C 370.861,315.512 336.194,295.512 301.5,275.5C 300.334,249.84 300.167,224.173 301,198.5C 336.212,219.346 371.379,240.013 406.5,260.5 Z"/></g>
<g><path style="opacity:1" fill="#328a7c" d="M 328.5,267.5 C 329.995,267.415 330.995,268.081 331.5,269.5C 329.902,273.711 327.568,277.378 324.5,280.5C 323.088,279.194 321.421,278.36 319.5,278C 317.357,273.314 318.69,270.147 323.5,268.5C 325.029,268.529 326.196,269.196 327,270.5C 328.039,269.756 328.539,268.756 328.5,267.5 Z"/></g>
<g><path style="opacity:1" fill="#487cb4" d="M 406.5,260.5 C 407.829,285.67 407.829,311.003 406.5,336.5C 405.893,336.376 405.56,336.043 405.5,335.5C 406.498,310.672 406.831,285.672 406.5,260.5 Z"/></g>
<g><path style="opacity:1" fill="#5390d5" d="M 322.5,272.5 C 324.355,272.272 325.188,272.939 325,274.5C 322.192,275.86 321.359,275.193 322.5,272.5 Z"/></g>
<g><path style="opacity:1" fill="#2f8679" d="M 332.5,270.5 C 333.5,270.5 334.5,270.5 335.5,270.5C 333.938,275.907 331.271,280.741 327.5,285C 324.51,285.847 323.176,284.68 323.5,281.5C 324.822,281.67 325.989,281.337 327,280.5C 329.099,277.3 330.933,273.967 332.5,270.5 Z"/></g>
<g><path style="opacity:1" fill="#419b8a" d="M 281.5,268.5 C 282.683,269.504 284.016,270.338 285.5,271C 288.084,274.402 290.75,277.569 293.5,280.5C 295.527,280.338 297.527,280.505 299.5,281C 306.5,285.167 313.5,289.333 320.5,293.5C 319.674,294.451 319.508,295.451 320,296.5C 339.249,307.54 358.415,318.707 377.5,330C 379.568,330.687 381.568,330.52 383.5,329.5C 391.963,334.134 400.296,338.967 408.5,344C 407.619,344.708 406.953,345.542 406.5,346.5C 385.059,358.39 363.725,370.557 342.5,383C 340.275,384.131 337.942,384.964 335.5,385.5C 298.304,365.138 261.471,344.138 225,322.5C 224.53,321.423 224.697,320.423 225.5,319.5C 231.334,315.079 237.668,311.412 244.5,308.5C 246.674,308.25 248.341,307.25 249.5,305.5C 255.579,303.139 260.913,299.806 265.5,295.5C 272.916,292.959 279.582,289.126 285.5,284C 284.207,283.51 282.873,283.343 281.5,283.5C 281.5,283.167 281.5,282.833 281.5,282.5C 281.5,277.833 281.5,273.167 281.5,268.5 Z"/></g>
<g><path style="opacity:1" fill="#919fad" d="M 94.5,158.5 C 94.8333,158.5 95.1667,158.5 95.5,158.5C 95.5,199.833 95.5,241.167 95.5,282.5C 157.5,282.5 219.5,282.5 281.5,282.5C 281.5,282.833 281.5,283.167 281.5,283.5C 219.167,283.5 156.833,283.5 94.5,283.5C 94.5,241.833 94.5,200.167 94.5,158.5 Z"/></g>
<g><path style="opacity:1" fill="#32877e" d="M 360.5,287.5 C 358.223,290.952 355.723,294.285 353,297.5C 346.884,295.955 345.384,292.622 348.5,287.5C 348,287.167 347.5,286.833 347,286.5C 345.127,287.868 343.46,289.534 342,291.5C 341.075,290.953 340.242,290.287 339.5,289.5C 342.38,284.956 341.546,284.289 337,287.5C 332.794,286.407 331.461,283.74 333,279.5C 338.13,275.381 341.464,276.714 343,283.5C 343.689,282.643 344.522,281.977 345.5,281.5C 348.484,283.487 351.65,285.154 355,286.5C 356.285,286.05 357.452,285.383 358.5,284.5C 359.919,285.005 360.585,286.005 360.5,287.5 Z"/></g>
<g><path style="opacity:1" fill="#5691da" d="M 335.5,280.5 C 336.5,280.5 337.5,280.5 338.5,280.5C 338.5,281.5 338.5,282.5 338.5,283.5C 337.5,283.5 336.5,283.5 335.5,283.5C 335.5,282.5 335.5,281.5 335.5,280.5 Z"/></g>
<g><path style="opacity:1" fill="#3d2915" d="M 94.5,283.5 C 156.833,283.5 219.167,283.5 281.5,283.5C 282.873,283.343 284.207,283.51 285.5,284C 279.582,289.126 272.916,292.959 265.5,295.5C 207.166,295.667 148.832,295.5 90.5,295C 86.7873,293.309 85.6206,290.475 87,286.5C 88.805,283.961 91.305,282.961 94.5,283.5 Z"/></g>
<g><path style="opacity:1" fill="#173f43" d="M 293.5,286.5 C 293.414,287.496 293.748,288.329 294.5,289C 328.557,308.022 362.223,327.522 395.5,347.5C 394.341,349.25 392.674,350.25 390.5,350.5C 356.495,329.493 321.828,309.493 286.5,290.5C 288.663,288.917 290.996,287.584 293.5,286.5 Z"/></g>
<g><path style="opacity:1" fill="#5c97e7" d="M 350.5,289.5 C 353.957,289.667 354.29,290.667 351.5,292.5C 350.614,291.675 350.281,290.675 350.5,289.5 Z"/></g>
<g><path style="opacity:1" fill="#2e8478" d="M 360.5,287.5 C 361.833,287.5 363.167,287.5 364.5,287.5C 364.043,290.406 363.043,293.072 361.5,295.5C 359.732,297.508 358.066,299.674 356.5,302C 349.997,301.474 349.83,299.974 356,297.5C 357.809,294.222 359.309,290.889 360.5,287.5 Z"/></g>
<g><path style="opacity:1" fill="#174144" d="M 286.5,290.5 C 288.544,292.711 290.877,294.711 293.5,296.5C 292.086,297.624 290.586,298.624 289,299.5C 286.118,297.298 282.951,296.131 279.5,296C 282.833,298 286.167,300 289.5,302C 284.479,305.209 279.813,304.543 275.5,300C 274.207,299.51 272.873,299.343 271.5,299.5C 276.216,296.137 281.216,293.137 286.5,290.5 Z"/></g>
<g><path style="opacity:1" fill="#32887e" d="M 361.5,295.5 C 367.123,292.279 369.957,293.946 370,300.5C 368.294,301.308 367.461,302.641 367.5,304.5C 361.48,304.15 359.48,301.15 361.5,295.5 Z"/></g>
<g><path style="opacity:1" fill="#568dd5" d="M 293.5,286.5 C 327.354,306.172 361.354,325.672 395.5,345C 396.774,345.977 396.774,346.811 395.5,347.5C 362.223,327.522 328.557,308.022 294.5,289C 293.748,288.329 293.414,287.496 293.5,286.5 Z"/></g>
<g><path style="opacity:1" fill="#184145" d="M 271.5,299.5 C 273.253,301.223 275.253,302.723 277.5,304C 276.107,305.363 274.441,306.196 272.5,306.5C 269.796,305.428 267.13,304.428 264.5,303.5C 266.336,301.412 268.669,300.079 271.5,299.5 Z"/></g>
<g><path style="opacity:1" fill="#32877d" d="M 373.5,295.5 C 377.884,295.399 380.05,297.399 380,301.5C 379.5,302.667 378.667,303.5 377.5,304C 377.833,304.333 378.167,304.667 378.5,305C 381.047,304.661 383.547,303.827 386,302.5C 387.395,302.78 388.562,303.447 389.5,304.5C 387.13,306.688 386.463,309.188 387.5,312C 385.693,312.928 384.026,314.094 382.5,315.5C 381.065,314.176 380.065,312.51 379.5,310.5C 376.891,309.77 374.224,309.27 371.5,309C 369.081,307.491 368.081,305.325 368.5,302.5C 369.5,302.5 370.5,302.5 371.5,302.5C 371.5,303.5 371.5,304.5 371.5,305.5C 372.675,305.719 373.675,305.386 374.5,304.5C 373.147,303.476 372.48,302.143 372.5,300.5C 377.539,300.549 377.705,299.882 373,298.5C 372.53,297.423 372.697,296.423 373.5,295.5 Z"/></g>
<g><path style="opacity:1" fill="#184245" d="M 264.5,303.5 C 265.479,305.145 266.812,306.479 268.5,307.5C 267.06,308.952 265.394,309.952 263.5,310.5C 255.846,308.022 256.18,305.688 264.5,303.5 Z"/></g>
<g><path style="opacity:1" fill="#439f8d" d="M 231.5,306.5 C 236.179,306.334 240.845,306.501 245.5,307C 244.944,307.383 244.611,307.883 244.5,308.5C 237.668,311.412 231.334,315.079 225.5,319.5C 224.252,320.334 223.585,321.667 223.5,323.5C 223.667,324.833 223.833,326.167 224,327.5C 227.076,329.426 230.242,331.092 233.5,332.5C 233.948,337.469 236.948,340.635 242.5,342C 245.117,342.822 247.784,343.322 250.5,343.5C 274.447,356.803 298.114,370.47 321.5,384.5C 302.133,386.918 282.633,387.918 263,387.5C 240.996,388.346 219.163,386.846 197.5,383C 192.363,381.732 187.363,380.066 182.5,378C 179.022,375.294 178.689,372.294 181.5,369C 187.015,366.077 192.682,363.41 198.5,361C 201.617,359.555 203.617,357.222 204.5,354C 204.215,352.11 203.215,350.777 201.5,350C 195.028,347.382 188.362,345.382 181.5,344C 156.417,341.259 131.417,337.925 106.5,334C 100.085,332.876 94.5851,330.043 90,325.5C 89.3333,323.833 89.3333,322.167 90,320.5C 94.917,316.97 100.417,314.803 106.5,314C 120.101,312.006 133.768,310.673 147.5,310C 175.497,308.705 203.497,307.539 231.5,306.5 Z"/></g>
<g><path style="opacity:1" fill="#336c68" d="M 231.5,306.5 C 237.31,305.51 243.31,305.177 249.5,305.5C 248.341,307.25 246.674,308.25 244.5,308.5C 244.611,307.883 244.944,307.383 245.5,307C 240.845,306.501 236.179,306.334 231.5,306.5 Z"/></g>
<g><path style="opacity:1" fill="#174044" d="M 271.5,315.5 C 269.147,314.66 267.147,313.326 265.5,311.5C 267.624,309.826 269.958,308.993 272.5,309C 273.833,310 275.167,311 276.5,312C 274.767,313.189 273.1,314.356 271.5,315.5 Z"/></g>
<g><path style="opacity:1" fill="#194347" d="M 279.5,320.5 C 277.205,319.525 275.205,318.192 273.5,316.5C 277.004,312.599 280.67,312.599 284.5,316.5C 282.581,317.612 280.914,318.946 279.5,320.5 Z"/></g>
<g><path style="opacity:1" fill="#184145" d="M 287.5,324.5 C 284.669,323.921 282.336,322.588 280.5,320.5C 282.473,319.513 284.473,318.513 286.5,317.5C 288.167,318.333 289.833,319.167 291.5,320C 292.451,320.718 292.617,321.551 292,322.5C 290.67,323.582 289.17,324.249 287.5,324.5 Z"/></g>
<g><path style="opacity:1" fill="#174043" d="M 321.5,344.5 C 310.495,338.667 299.828,332.334 289.5,325.5C 291.624,323.826 293.958,322.993 296.5,323C 306.997,328.748 317.33,334.748 327.5,341C 325.636,342.431 323.636,343.597 321.5,344.5 Z"/></g>
<g><path style="opacity:1" fill="#337f73" d="M 225.5,319.5 C 224.697,320.423 224.53,321.423 225,322.5C 261.471,344.138 298.304,365.138 335.5,385.5C 337.942,384.964 340.275,384.131 342.5,383C 363.725,370.557 385.059,358.39 406.5,346.5C 407.376,346.369 408.043,346.702 408.5,347.5C 407.807,348.518 407.141,349.518 406.5,350.5C 384.923,363.937 363.256,376.77 341.5,389C 338.594,390.318 335.594,390.652 332.5,390C 328.878,388.017 325.211,386.184 321.5,384.5C 298.114,370.47 274.447,356.803 250.5,343.5C 245.73,338.605 240.063,334.938 233.5,332.5C 230.242,331.092 227.076,329.426 224,327.5C 223.833,326.167 223.667,324.833 223.5,323.5C 223.585,321.667 224.252,320.334 225.5,319.5 Z"/></g>
<g><path style="opacity:1" fill="#143d3d" d="M 289.5,329.5 C 302.274,336.39 314.941,343.556 327.5,351C 320.334,355.751 313,360.251 305.5,364.5C 292.705,357.533 280.038,350.367 267.5,343C 275.064,338.726 282.398,334.226 289.5,329.5 Z"/></g>
<g><path style="opacity:1" fill="#3c6e88" d="M 233.5,332.5 C 240.063,334.938 245.73,338.605 250.5,343.5C 247.784,343.322 245.117,342.822 242.5,342C 236.948,340.635 233.948,337.469 233.5,332.5 Z"/></g>
<g><path style="opacity:1" fill="#568ed6" d="M 286.5,290.5 C 321.828,309.493 356.495,329.493 390.5,350.5C 388.095,350.134 385.762,349.467 383.5,348.5C 376.915,350.112 376.915,351.945 383.5,354C 382.944,354.383 382.611,354.883 382.5,355.5C 379.057,353.896 375.723,352.062 372.5,350C 369.788,349.262 367.455,349.929 365.5,352C 369.508,353.812 372.841,356.312 375.5,359.5C 370.728,357.28 366.062,354.78 361.5,352C 359.365,351.365 357.365,351.699 355.5,353C 354.167,353.667 354.167,354.333 355.5,355C 360.24,357.36 364.574,360.193 368.5,363.5C 365.72,363.193 363.22,362.193 361,360.5C 358.721,361.391 356.554,362.391 354.5,363.5C 353.833,363.5 353.5,363.167 353.5,362.5C 358.446,361.514 359.113,359.68 355.5,357C 352.354,356.411 349.688,357.245 347.5,359.5C 346.833,359.5 346.5,359.167 346.5,358.5C 348.1,357.356 349.767,356.189 351.5,355C 349.664,353.581 347.664,352.414 345.5,351.5C 343.466,352.559 341.466,353.559 339.5,354.5C 339.167,354.5 338.833,354.5 338.5,354.5C 339.914,352.946 341.581,351.612 343.5,350.5C 339.754,346.543 336.088,346.543 332.5,350.5C 331.508,350.672 330.842,350.338 330.5,349.5C 332.612,348.56 334.612,347.394 336.5,346C 333.763,343.864 330.763,342.864 327.5,343C 325.934,343.608 324.6,344.442 323.5,345.5C 322.508,345.672 321.842,345.338 321.5,344.5C 323.636,343.597 325.636,342.431 327.5,341C 317.33,334.748 306.997,328.748 296.5,323C 293.958,322.993 291.624,323.826 289.5,325.5C 288.508,325.672 287.842,325.338 287.5,324.5C 289.17,324.249 290.67,323.582 292,322.5C 292.617,321.551 292.451,320.718 291.5,320C 289.833,319.167 288.167,318.333 286.5,317.5C 284.473,318.513 282.473,319.513 280.5,320.5C 280.167,320.5 279.833,320.5 279.5,320.5C 280.914,318.946 282.581,317.612 284.5,316.5C 280.67,312.599 277.004,312.599 273.5,316.5C 272.508,316.672 271.842,316.338 271.5,315.5C 273.1,314.356 274.767,313.189 276.5,312C 275.167,311 273.833,310 272.5,309C 269.958,308.993 267.624,309.826 265.5,311.5C 264.508,311.672 263.842,311.338 263.5,310.5C 265.394,309.952 267.06,308.952 268.5,307.5C 266.812,306.479 265.479,305.145 264.5,303.5C 267.13,304.428 269.796,305.428 272.5,306.5C 274.441,306.196 276.107,305.363 277.5,304C 275.253,302.723 273.253,301.223 271.5,299.5C 272.873,299.343 274.207,299.51 275.5,300C 279.813,304.543 284.479,305.209 289.5,302C 286.167,300 282.833,298 279.5,296C 282.951,296.131 286.118,297.298 289,299.5C 290.586,298.624 292.086,297.624 293.5,296.5C 290.877,294.711 288.544,292.711 286.5,290.5 Z"/></g>
<g><path style="opacity:1" fill="#184146" d="M 360.5,335.5 C 367.785,336.701 368.118,338.701 361.5,341.5C 359.833,340.333 358.167,339.167 356.5,338C 358.066,337.392 359.4,336.558 360.5,335.5 Z"/></g>
<g><path style="opacity:1" fill="#174043" d="M 328.5,334.5 C 336.216,335.232 336.883,337.232 330.5,340.5C 328.483,339.826 326.817,338.659 325.5,337C 326.942,336.623 327.942,335.79 328.5,334.5 Z"/></g>
<g><path style="opacity:1" fill="#184044" d="M 340.5,332.5 C 347.903,333.544 348.237,335.544 341.5,338.5C 339.833,337.333 338.167,336.167 336.5,335C 338.066,334.392 339.4,333.558 340.5,332.5 Z"/></g>
<g><path style="opacity:1" fill="#174043" d="M 352.5,331.5 C 360.413,331.996 361.08,333.996 354.5,337.5C 352.833,336.333 351.167,335.167 349.5,334C 350.571,333.148 351.571,332.315 352.5,331.5 Z"/></g>
<g><path style="opacity:1" fill="#184045" d="M 321.5,330.5 C 329.309,331.272 329.976,333.272 323.5,336.5C 321.483,335.826 319.817,334.659 318.5,333C 319.571,332.148 320.571,331.315 321.5,330.5 Z"/></g>
<g><path style="opacity:1" fill="#174043" d="M 332.5,328.5 C 340.413,328.996 341.08,330.996 334.5,334.5C 332.833,333.333 331.167,332.167 329.5,331C 330.571,330.148 331.571,329.315 332.5,328.5 Z"/></g>
<g><path style="opacity:1" fill="#174044" d="M 346.5,326.5 C 348.636,327.403 350.636,328.569 352.5,330C 349.167,333.333 345.833,333.333 342.5,330C 343.731,328.595 345.064,327.429 346.5,326.5 Z"/></g>
<g><path style="opacity:1" fill="#1a4349" d="M 315.5,325.5 C 317.612,326.44 319.612,327.606 321.5,329C 319.667,330.167 317.833,331.333 316,332.5C 314.167,331.333 312.333,330.167 310.5,329C 312.346,327.97 314.013,326.804 315.5,325.5 Z"/></g>
<g><path style="opacity:1" fill="#174043" d="M 325.5,324.5 C 328.226,324.264 330.559,325.097 332.5,327C 329.167,330.333 325.833,330.333 322.5,327C 323.571,326.148 324.571,325.315 325.5,324.5 Z"/></g>
<g><path style="opacity:1" fill="#184146" d="M 339.5,322.5 C 346.839,324.585 347.006,326.585 340,328.5C 338.107,327.804 336.274,326.97 334.5,326C 336.233,324.811 337.9,323.644 339.5,322.5 Z"/></g>
<g><path style="opacity:1" fill="#194247" d="M 307.5,321.5 C 314.794,323.041 315.128,325.041 308.5,327.5C 306.734,326.909 305.067,326.076 303.5,325C 305.093,324.051 306.426,322.885 307.5,321.5 Z"/></g>
<g><path style="opacity:1" fill="#184045" d="M 319.5,319.5 C 326.839,321.585 327.006,323.585 320,325.5C 314.281,323.764 314.114,321.764 319.5,319.5 Z"/></g>
<g><path style="opacity:1" fill="#184146" d="M 331.5,318.5 C 338.684,319.944 339.018,321.944 332.5,324.5C 330.668,323.752 329.001,322.752 327.5,321.5C 328.901,320.479 330.235,319.479 331.5,318.5 Z"/></g>
<g><path style="opacity:1" fill="#194247" d="M 300.5,317.5 C 302.757,317.962 304.757,318.962 306.5,320.5C 303.167,324.5 299.833,324.5 296.5,320.5C 297.901,319.479 299.235,318.479 300.5,317.5 Z"/></g>
<g><path style="opacity:1" fill="#194147" d="M 311.5,315.5 C 320.594,318.04 320.594,319.873 311.5,321C 310.167,320.333 308.833,319.667 307.5,319C 309.093,318.051 310.426,316.885 311.5,315.5 Z"/></g>
<g><path style="opacity:1" fill="#194247" d="M 323.5,314.5 C 331.216,315.232 331.883,317.232 325.5,320.5C 323.483,319.826 321.817,318.659 320.5,317C 321.571,316.148 322.571,315.315 323.5,314.5 Z"/></g>
<g><path style="opacity:1" fill="#194147" d="M 292.5,313.5 C 294.308,313.491 295.975,313.991 297.5,315C 298.451,315.718 298.617,316.551 298,317.5C 294.84,320.286 292.007,319.952 289.5,316.5C 290.77,315.712 291.77,314.712 292.5,313.5 Z"/></g>
<g><path style="opacity:1" fill="#194248" d="M 304.5,311.5 C 312.396,313.733 312.396,315.566 304.5,317C 302.998,316.417 301.665,315.584 300.5,314.5C 301.901,313.479 303.235,312.479 304.5,311.5 Z"/></g>
<g><path style="opacity:1" fill="#1a4349" d="M 315.5,310.5 C 318.564,310.144 321.231,310.977 323.5,313C 321.751,314.292 319.918,315.458 318,316.5C 316.167,315.333 314.333,314.167 312.5,313C 313.942,312.623 314.942,311.79 315.5,310.5 Z"/></g>
<g><path style="opacity:1" fill="#1a4349" d="M 285.5,309.5 C 294.516,311.319 294.516,313.152 285.5,315C 284.167,314 282.833,313 281.5,312C 283.066,311.392 284.4,310.558 285.5,309.5 Z"/></g>
<g><path style="opacity:1" fill="#194247" d="M 296.5,307.5 C 304.216,308.232 304.883,310.232 298.5,313.5C 296.483,312.826 294.817,311.659 293.5,310C 294.942,309.623 295.942,308.79 296.5,307.5 Z"/></g>
<g><path style="opacity:1" fill="#194247" d="M 309.5,305.5 C 316.655,306.766 317.155,309.099 311,312.5C 309.167,311.333 307.333,310.167 305.5,309C 307.093,308.051 308.426,306.885 309.5,305.5 Z"/></g>
<g><path style="opacity:1" fill="#174043" d="M 277.5,305.5 C 280.226,305.264 282.559,306.097 284.5,308C 281.167,311.333 277.833,311.333 274.5,308C 275.571,307.148 276.571,306.315 277.5,305.5 Z"/></g>
<g><path style="opacity:1" fill="#194147" d="M 289.5,303.5 C 297.309,304.272 297.976,306.272 291.5,309.5C 289.668,308.752 288.001,307.752 286.5,306.5C 287.34,305.265 288.34,304.265 289.5,303.5 Z"/></g>
<g><path style="opacity:1" fill="#194147" d="M 302.5,301.5 C 304.757,301.962 306.757,302.962 308.5,304.5C 305.167,308.5 301.833,308.5 298.5,304.5C 299.901,303.479 301.235,302.479 302.5,301.5 Z"/></g>
<g><path style="opacity:1" fill="#184146" d="M 294.5,297.5 C 296.308,297.491 297.975,297.991 299.5,299C 300.451,299.718 300.617,300.551 300,301.5C 296.84,304.286 294.007,303.952 291.5,300.5C 292.34,299.265 293.34,298.265 294.5,297.5 Z"/></g>
<g><path style="opacity:1" fill="#194247" d="M 347.5,336.5 C 355.462,338.672 355.462,340.506 347.5,342C 343.649,340.193 343.649,338.36 347.5,336.5 Z"/></g>
<g><path style="opacity:1" fill="#174044" d="M 336.5,338.5 C 344.396,340.733 344.396,342.566 336.5,344C 332.649,342.193 332.649,340.36 336.5,338.5 Z"/></g>
<g><path style="opacity:1" fill="#184145" d="M 368.5,339.5 C 374.838,341.151 375.005,343.151 369,345.5C 367.374,344.711 365.874,343.711 364.5,342.5C 365.901,341.479 367.235,340.479 368.5,339.5 Z"/></g>
<g><path style="opacity:1" fill="#184145" d="M 355.5,340.5 C 362.797,342.547 362.964,344.547 356,346.5C 354.107,345.804 352.274,344.97 350.5,344C 352.233,342.811 353.9,341.644 355.5,340.5 Z"/></g>
<g><path style="opacity:1" fill="#184145" d="M 330.5,349.5 C 327.669,348.921 325.336,347.588 323.5,345.5C 324.6,344.442 325.934,343.608 327.5,343C 330.763,342.864 333.763,343.864 336.5,346C 334.612,347.394 332.612,348.56 330.5,349.5 Z"/></g>
<g><path style="opacity:1" fill="#184146" d="M 344.5,342.5 C 351.839,344.585 352.006,346.585 345,348.5C 343.107,347.804 341.274,346.97 339.5,346C 341.233,344.811 342.9,343.644 344.5,342.5 Z"/></g>
<g><path style="opacity:1" fill="#194247" d="M 375.5,343.5 C 382.458,345.33 382.791,347.33 376.5,349.5C 370.242,348.275 369.909,346.275 375.5,343.5 Z"/></g>
<g><path style="opacity:1" fill="#194247" d="M 362.5,344.5 C 369.458,346.33 369.791,348.33 363.5,350.5C 357.242,349.275 356.909,347.275 362.5,344.5 Z"/></g>
<g><path style="opacity:1" fill="#184145" d="M 338.5,354.5 C 336.118,353.649 334.118,352.316 332.5,350.5C 336.088,346.543 339.754,346.543 343.5,350.5C 341.581,351.612 339.914,352.946 338.5,354.5 Z"/></g>
<g><path style="opacity:1" fill="#174044" d="M 350.5,347.5 C 353.226,347.264 355.559,348.097 357.5,350C 354.167,353.333 350.833,353.333 347.5,350C 348.571,349.148 349.571,348.315 350.5,347.5 Z"/></g>
<g><path style="opacity:1" fill="#194346" d="M 390.5,350.5 C 388.178,352.664 385.511,354.331 382.5,355.5C 382.611,354.883 382.944,354.383 383.5,354C 376.915,351.945 376.915,350.112 383.5,348.5C 385.762,349.467 388.095,350.134 390.5,350.5 Z"/></g>
<g><path style="opacity:1" fill="#174043" d="M 382.5,355.5 C 380.337,357.083 378.004,358.416 375.5,359.5C 372.841,356.312 369.508,353.812 365.5,352C 367.455,349.929 369.788,349.262 372.5,350C 375.723,352.062 379.057,353.896 382.5,355.5 Z"/></g>
<g><path style="opacity:1" fill="#045445" d="M 443.5,349.5 C 453.337,348.511 458.17,352.844 458,362.5C 457.085,363.328 456.419,364.328 456,365.5C 453.223,366.636 450.723,368.136 448.5,370C 453.782,381.228 458.782,392.561 463.5,404C 462.409,412.22 457.742,415.554 449.5,414C 448.333,412.833 447.167,411.667 446,410.5C 441.09,399.68 435.923,389.014 430.5,378.5C 418.75,384.208 413.25,380.542 414,367.5C 415.833,365.667 417.667,363.833 419.5,362C 427.435,357.534 435.435,353.367 443.5,349.5 Z"/></g>
<g><path style="opacity:1" fill="#163f42" d="M 375.5,359.5 C 373.337,361.083 371.004,362.416 368.5,363.5C 364.574,360.193 360.24,357.36 355.5,355C 354.167,354.333 354.167,353.667 355.5,353C 357.365,351.699 359.365,351.365 361.5,352C 366.062,354.78 370.728,357.28 375.5,359.5 Z"/></g>
<g><path style="opacity:1" fill="#184145" d="M 346.5,358.5 C 343.669,357.921 341.336,356.588 339.5,354.5C 341.466,353.559 343.466,352.559 345.5,351.5C 347.664,352.414 349.664,353.581 351.5,355C 349.767,356.189 348.1,357.356 346.5,358.5 Z"/></g>
<g><path style="opacity:1" fill="#419f8c" d="M 444.5,352.5 C 452.865,351.686 455.865,355.186 453.5,363C 450.691,364.741 447.691,365.908 444.5,366.5C 449.266,379.37 454.599,392.037 460.5,404.5C 458.606,411.036 454.773,412.703 449,409.5C 443.317,397.469 437.65,385.469 432,373.5C 428.935,375.407 425.768,377.074 422.5,378.5C 417.804,376.777 415.971,373.444 417,368.5C 425.524,361.99 434.691,356.657 444.5,352.5 Z"/></g>
<g><path style="opacity:1" fill="#184145" d="M 353.5,362.5 C 351.181,362.008 349.181,361.008 347.5,359.5C 349.688,357.245 352.354,356.411 355.5,357C 359.113,359.68 358.446,361.514 353.5,362.5 Z"/></g>
<g><path style="opacity:1" fill="#055446" d="M 55.5,357.5 C 65.1562,356.413 73.8228,358.746 81.5,364.5C 84.8996,370.849 83.5663,376.015 77.5,380C 75.1667,380.667 72.8333,380.667 70.5,380C 63.0308,376.063 56.1975,376.896 50,382.5C 46.8109,388.822 48.6442,392.989 55.5,395C 58.8931,395.798 62.2265,396.798 65.5,398C 71.2097,404.445 70.543,410.112 63.5,415C 48.599,415.469 37.4324,409.302 30,396.5C 26.2965,382.068 30.7965,370.902 43.5,363C 47.6443,361.241 51.6443,359.408 55.5,357.5 Z"/></g>
<g><path style="opacity:1" fill="#184246" d="M 368.5,363.5 C 366.355,365.075 364.022,366.409 361.5,367.5C 358.978,366.409 356.645,365.075 354.5,363.5C 356.554,362.391 358.721,361.391 361,360.5C 363.22,362.193 365.72,363.193 368.5,363.5 Z"/></g>
<g><path style="opacity:1" fill="#419e8b" d="M 58.5,360.5 C 65.9941,360.388 72.8275,362.388 79,366.5C 81.5013,373.658 79.0013,377.158 71.5,377C 61.6036,372.276 53.1036,374.109 46,382.5C 44.5783,385.03 44.245,387.697 45,390.5C 46.8333,392.333 48.6667,394.167 50.5,396C 55.4949,397.947 60.3282,400.113 65,402.5C 67.043,408.429 65.043,411.763 59,412.5C 49.4275,411.047 41.4275,406.714 35,399.5C 29.6686,389.48 30.6686,380.147 38,371.5C 43.8552,365.825 50.6886,362.158 58.5,360.5 Z"/></g>
<g><path style="opacity:1" fill="#045545" d="M 392.5,369.5 C 402.543,368.378 407.043,372.712 406,382.5C 405.047,384.455 403.713,386.122 402,387.5C 401.51,388.793 401.343,390.127 401.5,391.5C 414.175,391.25 423.008,396.917 428,408.5C 430.244,423.185 424.41,433.019 410.5,438C 404.141,439.098 398.141,438.098 392.5,435C 387.657,430.62 387.323,425.954 391.5,421C 395.348,418.332 399.515,417.832 404,419.5C 406.741,419.054 408.575,417.554 409.5,415C 409.18,413.347 408.18,412.347 406.5,412C 383.766,409.366 376.933,397.533 386,376.5C 387.728,373.67 389.895,371.337 392.5,369.5 Z"/></g>
<g><path style="opacity:1" fill="#055446" d="M 99.5,372.5 C 113.239,370.955 123.739,375.955 131,387.5C 133.927,403.72 129.427,417.553 117.5,429C 108.074,436.559 97.7407,438.225 86.5,434C 75.3839,426.331 71.5506,415.831 75,402.5C 78.6969,388.732 86.8636,378.732 99.5,372.5 Z"/></g>
<g><path style="opacity:1" fill="#419f8c" d="M 393.5,372.5 C 400.87,371.395 404.037,374.395 403,381.5C 399.418,384.381 397.751,388.048 398,392.5C 398.903,393.701 400.069,394.535 401.5,395C 417.482,394.981 425.315,402.814 425,418.5C 420.517,431.828 411.351,436.994 397.5,434C 390.103,430.45 389.77,426.45 396.5,422C 401.4,423.279 406.067,422.613 410.5,420C 413.167,416.667 413.167,413.333 410.5,410C 405.301,408.182 399.967,406.849 394.5,406C 386.203,401.128 383.37,393.961 386,384.5C 387.933,380.083 390.433,376.083 393.5,372.5 Z"/></g>
<g><path style="opacity:1" fill="#419f8c" d="M 101.5,375.5 C 113.29,374.803 122.124,379.47 128,389.5C 130.077,404.261 125.577,416.761 114.5,427C 104.863,433.383 94.8629,434.049 84.5,429C 78.0655,422.021 75.8988,413.854 78,404.5C 81.1527,390.771 88.986,381.104 101.5,375.5 Z"/></g>
<g><path style="opacity:1" fill="#055546" d="M 142.5,384.5 C 160.501,386.076 172.334,395.41 178,412.5C 178.671,429.99 170.504,440.823 153.5,445C 145.921,446.876 138.254,447.542 130.5,447C 125.581,444.259 123.748,440.092 125,434.5C 128.726,419.655 133.059,404.989 138,390.5C 139.332,388.34 140.832,386.34 142.5,384.5 Z"/></g>
<g><path style="opacity:1" fill="#055546" d="M 357.5,384.5 C 365.471,384.282 370.971,387.948 374,395.5C 378.641,409.396 382.974,423.396 387,437.5C 388.48,450.434 383.147,454.434 371,449.5C 369.275,446.326 367.942,442.993 367,439.5C 364.069,437.953 361.569,438.453 359.5,441C 361.061,446.317 360.728,451.484 358.5,456.5C 350.654,461.761 344.821,460.094 341,451.5C 340.333,439.167 340.333,426.833 341,414.5C 342.628,402.233 348.128,392.233 357.5,384.5 Z"/></g>
<g><path style="opacity:1" fill="#419f8c" d="M 142.5,388.5 C 157.551,389.278 168.051,396.612 174,410.5C 176.478,427.027 169.645,437.527 153.5,442C 146.228,443.611 138.895,444.278 131.5,444C 129.323,442.503 127.99,440.503 127.5,438C 131.802,421.263 136.802,404.763 142.5,388.5 Z"/></g>
<g><path style="opacity:1" fill="#419f8c" d="M 359.5,387.5 C 361.655,387.372 363.655,387.872 365.5,389C 368.293,392.081 370.46,395.581 372,399.5C 376.31,412.742 380.31,426.075 384,439.5C 385.033,446.76 381.867,449.593 374.5,448C 371.848,443.909 370.181,439.409 369.5,434.5C 365.14,435.007 360.807,435.673 356.5,436.5C 356.666,442.509 356.499,448.509 356,454.5C 352.064,457.314 348.397,456.981 345,453.5C 343.378,442.264 343.045,430.931 344,419.5C 344.16,406.185 349.326,395.518 359.5,387.5 Z"/></g>
<g><path style="opacity:1" fill="#055546" d="M 103.5,388.5 C 113.046,388.541 116.879,393.208 115,402.5C 112.794,413.384 106.294,419.218 95.5,420C 93.3333,419.167 91.8333,417.667 91,415.5C 90.3199,404.197 94.4865,395.197 103.5,388.5 Z"/></g>
<g><path style="opacity:1" fill="#44779f" d="M 102.5,392.5 C 110.348,390.963 113.515,393.963 112,401.5C 110.554,406.895 107.721,411.395 103.5,415C 93.6737,417.821 90.8403,414.321 95,404.5C 96.9331,400.083 99.4331,396.083 102.5,392.5 Z"/></g>
<g><path style="opacity:1" fill="#055546" d="M 193.5,394.5 C 202.295,394.164 210.962,394.997 219.5,397C 225.025,399.919 226.858,404.419 225,410.5C 223.347,414.482 220.347,416.482 216,416.5C 212.208,415.69 208.375,415.356 204.5,415.5C 204.5,416.5 204.5,417.5 204.5,418.5C 216.667,421.32 218.667,427.487 210.5,437C 206.586,438.529 202.586,438.696 198.5,437.5C 198.5,438.5 198.5,439.5 198.5,440.5C 205.418,440.068 211.918,441.401 218,444.5C 221.699,450.347 220.865,455.514 215.5,460C 204.495,460.222 193.495,459.889 182.5,459C 178.415,457.087 176.082,453.92 175.5,449.5C 179.198,433.709 183.364,418.043 188,402.5C 189.273,399.403 191.107,396.736 193.5,394.5 Z"/></g>
<g><path style="opacity:1" fill="#055546" d="M 301.5,394.5 C 322.137,395.138 332.137,405.805 331.5,426.5C 331.708,445.945 322.375,457.612 303.5,461.5C 293.403,460.193 286.237,454.859 282,445.5C 278.411,434.999 277.744,424.333 280,413.5C 283.948,403.377 291.115,397.044 301.5,394.5 Z"/></g>
<g><path style="opacity:1" fill="#419e8b" d="M 195.5,397.5 C 202.846,398.135 210.179,398.968 217.5,400C 222.866,402.844 223.866,406.844 220.5,412C 214.486,412.24 208.486,412.24 202.5,412C 201.134,414.997 200.467,418.164 200.5,421.5C 203.568,421.547 206.568,422.047 209.5,423C 213.704,427.155 213.371,430.822 208.5,434C 204.129,434.629 199.796,434.463 195.5,433.5C 195.308,436.601 194.642,439.601 193.5,442.5C 199.851,443.239 206.184,444.072 212.5,445C 215.442,445.94 216.775,447.94 216.5,451C 216.51,455.987 214.01,458.154 209,457.5C 200.846,456.817 192.68,456.317 184.5,456C 181.943,455.315 180.109,453.815 179,451.5C 181.711,436.654 185.378,421.988 190,407.5C 190.636,403.353 192.469,400.019 195.5,397.5 Z"/></g>
<g><path style="opacity:1" fill="#419f8c" d="M 298.5,398.5 C 315.028,395.66 324.861,402.326 328,418.5C 330.725,431.986 327.225,443.486 317.5,453C 299.163,462.25 287.663,456.75 283,436.5C 278.092,419.357 283.259,406.691 298.5,398.5 Z"/></g>
<g><path style="opacity:1" fill="#065747" d="M 150.5,403.5 C 158.087,406.238 161.92,411.571 162,419.5C 158.266,427.122 152.099,430.788 143.5,430.5C 145.627,421.451 147.961,412.451 150.5,403.5 Z"/></g>
<g><path style="opacity:1" fill="#055546" d="M 247.5,403.5 C 262.542,403.377 270.042,410.71 270,425.5C 268.384,430.779 265.551,435.279 261.5,439C 267.738,444.334 272.904,450.501 277,457.5C 277.535,462.586 275.368,466.086 270.5,468C 267.833,468.667 265.167,468.667 262.5,468C 257.647,461.647 251.98,456.147 245.5,451.5C 244.915,457.579 244.082,463.579 243,469.5C 238.032,475.225 232.532,475.892 226.5,471.5C 225.149,469.546 224.482,467.379 224.5,465C 224.988,451.767 226.154,438.601 228,425.5C 230.606,414.563 237.106,407.23 247.5,403.5 Z"/></g>
<g><path style="opacity:1" fill="#419f8c" d="M 245.5,407.5 C 257.446,405.153 264.446,409.82 266.5,421.5C 265.92,428.817 262.587,434.651 256.5,439C 262.792,444.081 268.292,449.915 273,456.5C 273.62,464.455 270.12,466.955 262.5,464C 256.981,456.981 250.648,450.814 243.5,445.5C 242.044,453.1 240.877,460.767 240,468.5C 232.907,473.748 228.74,472.082 227.5,463.5C 228.14,451.118 229.307,438.784 231,426.5C 233.08,417.937 237.914,411.604 245.5,407.5 Z"/></g>
<g><path style="opacity:1" fill="#42769c" d="M 152.5,408.5 C 157.649,410.856 159.482,414.856 158,420.5C 155.718,423.957 152.552,425.957 148.5,426.5C 148.167,426.167 147.833,425.833 147.5,425.5C 149.325,419.866 150.991,414.199 152.5,408.5 Z"/></g>
<g><path style="opacity:1" fill="#065847" d="M 360.5,406.5 C 362.779,411.185 363.946,416.185 364,421.5C 361.699,422.867 359.199,423.534 356.5,423.5C 356.74,417.544 358.073,411.877 360.5,406.5 Z"/></g>
<g><path style="opacity:1" fill="#055546" d="M 301.5,411.5 C 308.624,409.972 313.124,412.639 315,419.5C 315.667,424.5 315.667,429.5 315,434.5C 313.495,440.343 309.829,443.677 304,444.5C 301.966,444.646 300.299,443.98 299,442.5C 294.638,434.536 293.638,426.203 296,417.5C 297.36,414.977 299.193,412.977 301.5,411.5 Z"/></g>
<g><path style="opacity:1" fill="#4478a0" d="M 302.5,414.5 C 310.387,414.403 313.72,418.403 312.5,426.5C 313.193,433.456 310.526,438.456 304.5,441.5C 300.968,440.13 299.135,437.464 299,433.5C 298.333,428.5 298.333,423.5 299,418.5C 300.376,417.295 301.542,415.962 302.5,414.5 Z"/></g>
<g><path style="opacity:1" fill="#045645" d="M 250.5,419.5 C 251.5,419.5 252.5,419.5 253.5,419.5C 252.444,424.406 249.611,428.073 245,430.5C 244.5,430.167 244,429.833 243.5,429.5C 245.05,425.617 247.384,422.283 250.5,419.5 Z"/></g>
</svg>
